<svg xmlns="http://www.w3.org/2000/svg" viewBox="0 0 32 32"><circle cx="16" cy="16" r="16" fill="#25d366"/><path d="M16 7.5c-4.7 0-8.5 3.7-8.5 8.3 0 1.5.4 2.9 1.1 4.1L7 25l5.3-1.4c1.2.3 2.4.5 3.7.5 4.7 0 8.5-3.7 8.5-8.3s-3.8-8.3-8.5-8.3zm0 14.6c-1.1 0-2.2-.2-3.2-.5l-.2-.1-3.1.8.8-3-.2-.3c-.7-1.1-1.1-2.3-1.1-3.6 0-3.7 3.2-6.7 7.1-6.7s7.1 3 7.1 6.7-3.2 6.7-7.1 6.7zm4-5.1c-.2-.1-1.2-.6-1.3-.7-.2-.1-.3-.1-.5.1-.1.2-.6.7-.7.8-.1.1-.2.2-.4.1-.2-.1-.8-.3-1.5-.9-.6-.5-1-1.1-1.1-1.3-.1-.2 0-.3.1-.4.1-.1.2-.2.3-.3.1-.1.1-.2.2-.3.1-.1.1-.2.2-.3.1-.1.1-.2.1-.3 0-.1 0-.2-.1-.3-.1-.1-.5-1.2-.7-1.6-.2-.4-.4-.3-.5-.3h-.4c-.1 0-.3 0-.4.2-.1.2-.5.5-.5 1.2s.5 1.4.6 1.5c.1.1 1.1 1.7 2.7 2.3 1.6.6 1.6.4 1.9.4.3 0 .9-.4 1.1-.8.1-.2.1-.4.1-.5 0-.1-.1-.1-.2-.2z" fill="#fff"/></svg>