<svg xmlns="http://www.w3.org/2000/svg" viewBox="0 0 32 32"><radialGradient id="a" cx="16" cy="16" r="16" gradientUnits="userSpaceOnUse"><stop offset="0" stop-color="#fdf497"/><stop offset=".5" stop-color="#fdf497"/><stop offset=".7" stop-color="#fd5949"/><stop offset="1" stop-color="#d6249f"/></radialGradient><circle cx="16" cy="16" r="16" fill="url(#a)"/><path d="M22 10.1c.6 0 1 .4 1 1v9.8c0 .6-.4 1-1 1H10c-.6 0-1-.4-1-1v-9.8c0-.6.4-1 1-1h12m0-2H10c-1.7 0-3 1.3-3 3v9.8c0 1.7 1.3 3 3 3h12c1.7 0 3-1.3 3-3v-9.8c0-1.7-1.3-3-3-3zm-6 3.7a4.3 4.3 0 1 0 0 8.6 4.3 4.3 0 0 0 0-8.6zm0 7.1a2.8 2.8 0 1 1 0-5.6 2.8 2.8 0 0 1 0 5.6zm5.2-7.5a1 1 0 1 0 0 2 1 1 0 0 0 0-2z" fill="#fff"/></svg>